<svg width="600" height="200" viewBox="0 0 600 200" xmlns="http://www.w3.org/2000/svg">
  <style>
    .red { fill: red; }
    .white { fill: white; }
    .stroke { stroke: red; stroke-width: 2; fill: none; }
  </style>
  <!-- Top horizontal line -->
  <line x1="10" y1="20" x2="380" y2="20" class="stroke"/>
  <line x1="430" y1="20" x2="590" y2="20" class="stroke"/>

  <!-- Vertical lines -->
  <line x1="10" y1="20" x2="10" y2="180" class="stroke"/>
  <line x1="590" y1="20" x2="590" y2="180" class="stroke"/>

  <!-- Bottom horizontal line -->
  <line x1="10" y1="180" x2="380" y2="180" class="stroke"/>
  <line x1="430" y1="180" x2="590" y2="180" class="stroke"/>

  <!-- Middle horizontal line -->
  <line x1="10" y1="100" x2="290" y2="100" class="stroke"/>
  <line x1="310" y1="100" x2="590" y2="100" class="stroke"/>

  <!-- Middle vertical lines -->
  <line x1="150" y1="20" x2="150" y2="100" class="stroke"/>
  <line x1="450" y1="100" x2="450" y2="180" class="stroke"/>

  <!-- Inner diagonal lines -->
  <line x1="380" y1="20" x2="430" y2="180" class="stroke"/>
  <line x1="380" y1="180" x2="430" y2="20" class="stroke"/>

  <!-- "boxes" in the bottom part -->
  <rect x="100" y="60" width="50" height="20" class="red"/>
  <rect x="250" y="60" width="50" height="20" class="red"/>
  <rect x="300" y="60" width="50" height="20" class="red"/>
  <rect x="400" y="60" width="50" height="20" class="red"/>
  <rect x="550" y="60" width="50" height="20" class="red"/>

  <!-- Middle empty box -->
  <rect x="320" y="80" width="100" height="40" class="stroke"/>

  <!-- "boxes" in the top part -->
  <rect x="100" y="120" width="50" height="20" class="red"/>
  <rect x="250" y="120" width="50" height="20" class="red"/>
  <rect x="300" y="120" width="50" height="20" class="red"/>
  <rect x="400" y="120" width="50" height="20" class="red"/>
  <rect x="550" y="120" width="50" height="20" class="red"/>
</svg>
